<svg width="10" height="14" viewBox="0 0 10 14" fill="none" xmlns="http://www.w3.org/2000/svg">
<path fill-rule="evenodd" clip-rule="evenodd" d="M2.25267 0.692167L4.71267 0.3055C6.85933 -0.0318334 7.93267 -0.201167 8.63267 0.398167C9.33333 0.996833 9.33333 2.0835 9.33333 4.25683V6.24617H5.38667L7.18667 3.9955L6.14667 3.16217L3.48 6.4955L3.14667 6.91283L3.48 7.32883L6.14667 10.6622L7.18667 9.82883L5.38667 7.5795H9.33333V9.56817C9.33333 11.7415 9.33333 12.8282 8.63333 13.4268C7.93333 14.0255 6.86 13.8568 4.71267 13.5202L2.25267 13.1335C1.17733 12.9642 0.64 12.8802 0.32 12.5055C1.98682e-08 12.1308 0 11.5875 0 10.4995V3.32617C0 2.23817 1.98682e-08 1.6935 0.32 1.3195C0.64 0.9455 1.17733 0.860833 2.25267 0.692167Z" fill="#007C85"/>
</svg>
