<svg width="10" height="14" viewBox="0 0 10 14" fill="none" xmlns="http://www.w3.org/2000/svg">
<path fill-rule="evenodd" clip-rule="evenodd" d="M7.08071 0.692167L4.62071 0.3055C2.47404 -0.0318334 1.40071 -0.201167 0.700707 0.398167C4.1008e-05 0.996833 4.00543e-05 2.0835 4.00543e-05 4.25683V6.24617H3.94671L2.14671 3.9955L3.18671 3.16217L5.85337 6.4955L6.18671 6.91283L5.85337 7.32883L3.18671 10.6622L2.14671 9.82883L3.94671 7.5795H4.00543e-05V9.56817C4.00543e-05 11.7415 4.00543e-05 12.8282 0.70004 13.4268C1.40004 14.0255 2.47337 13.8568 4.62071 13.5202L7.08071 13.1335C8.15604 12.9642 8.69337 12.8802 9.01337 12.5055C9.33337 12.1308 9.33337 11.5875 9.33337 10.4995V3.32617C9.33337 2.23817 9.33337 1.6935 9.01337 1.3195C8.69337 0.9455 8.15604 0.860833 7.08071 0.692167Z" fill="#007C85"/>
</svg>
