<svg width="26" height="23" viewBox="0 0 26 23" fill="none" xmlns="http://www.w3.org/2000/svg">
<g filter="url(#filter0_d_473_1147)">
<path d="M20.25 2H15.875C15.212 2 14.5761 2.26339 14.1072 2.73223C13.6384 3.20107 13.375 3.83696 13.375 4.5V11.375C13.375 11.5408 13.3092 11.6997 13.1919 11.8169C13.0747 11.9342 12.9158 12 12.75 12C12.5842 12 12.4253 11.9342 12.3081 11.8169C12.1908 11.6997 12.125 11.5408 12.125 11.375V4.5C12.125 3.83696 11.8616 3.20107 11.3928 2.73223C10.9239 2.26339 10.288 2 9.625 2H5.25C4.91848 2 4.60054 2.1317 4.36612 2.36612C4.1317 2.60054 4 2.91848 4 3.25V13.25C4 13.5815 4.1317 13.8995 4.36612 14.1339C4.60054 14.3683 4.91848 14.5 5.25 14.5H10.25C10.7473 14.5 11.2242 14.6975 11.5758 15.0492C11.9275 15.4008 12.125 15.8777 12.125 16.375C12.125 16.5408 12.1908 16.6997 12.3081 16.8169C12.4253 16.9342 12.5842 17 12.75 17C12.9158 17 13.0747 16.9342 13.1919 16.8169C13.3092 16.6997 13.375 16.5408 13.375 16.375C13.375 15.8777 13.5725 15.4008 13.9242 15.0492C14.2758 14.6975 14.7527 14.5 15.25 14.5H20.25C20.5815 14.5 20.8995 14.3683 21.1339 14.1339C21.3683 13.8995 21.5 13.5815 21.5 13.25V3.25C21.5 2.91848 21.3683 2.60054 21.1339 2.36612C20.8995 2.1317 20.5815 2 20.25 2ZM19 11.375H15.875C15.7092 11.375 15.5503 11.3092 15.4331 11.1919C15.3158 11.0747 15.25 10.9158 15.25 10.75C15.25 10.5842 15.3158 10.4253 15.4331 10.3081C15.5503 10.1908 15.7092 10.125 15.875 10.125H19C19.1658 10.125 19.3247 10.1908 19.4419 10.3081C19.5592 10.4253 19.625 10.5842 19.625 10.75C19.625 10.9158 19.5592 11.0747 19.4419 11.1919C19.3247 11.3092 19.1658 11.375 19 11.375ZM19 8.875H15.875C15.7092 8.875 15.5503 8.80915 15.4331 8.69194C15.3158 8.57473 15.25 8.41576 15.25 8.25C15.25 8.08424 15.3158 7.92527 15.4331 7.80806C15.5503 7.69085 15.7092 7.625 15.875 7.625H19C19.1658 7.625 19.3247 7.69085 19.4419 7.80806C19.5592 7.92527 19.625 8.08424 19.625 8.25C19.625 8.41576 19.5592 8.57473 19.4419 8.69194C19.3247 8.80915 19.1658 8.875 19 8.875ZM19 6.375H15.875C15.7092 6.375 15.5503 6.30915 15.4331 6.19194C15.3158 6.07473 15.25 5.91576 15.25 5.75C15.25 5.58424 15.3158 5.42527 15.4331 5.30806C15.5503 5.19085 15.7092 5.125 15.875 5.125H19C19.1658 5.125 19.3247 5.19085 19.4419 5.30806C19.5592 5.42527 19.625 5.58424 19.625 5.75C19.625 5.91576 19.5592 6.07473 19.4419 6.19194C19.3247 6.30915 19.1658 6.375 19 6.375Z" fill="#1AA6E5"/>
</g>
<defs>
<filter id="filter0_d_473_1147" x="0" y="0" width="25.5" height="23" filterUnits="userSpaceOnUse" color-interpolation-filters="sRGB">
<feFlood flood-opacity="0" result="BackgroundImageFix"/>
<feColorMatrix in="SourceAlpha" type="matrix" values="0 0 0 0 0 0 0 0 0 0 0 0 0 0 0 0 0 0 127 0" result="hardAlpha"/>
<feOffset dy="2"/>
<feGaussianBlur stdDeviation="2"/>
<feComposite in2="hardAlpha" operator="out"/>
<feColorMatrix type="matrix" values="0 0 0 0 0 0 0 0 0 0 0 0 0 0 0 0 0 0 0.25 0"/>
<feBlend mode="normal" in2="BackgroundImageFix" result="effect1_dropShadow_473_1147"/>
<feBlend mode="normal" in="SourceGraphic" in2="effect1_dropShadow_473_1147" result="shape"/>
</filter>
</defs>
</svg>
