<svg width="26" height="21" viewBox="0 0 26 21" fill="none" xmlns="http://www.w3.org/2000/svg">
<g filter="url(#filter0_d_473_510)">
<path d="M20.25 2H7.75C7.41848 2 7.10054 2.1317 6.86612 2.36612C6.6317 2.60054 6.5 2.91848 6.5 3.25V12.625C6.5 12.7908 6.43415 12.9497 6.31694 13.0669C6.19973 13.1842 6.04076 13.25 5.875 13.25C5.70924 13.25 5.55027 13.1842 5.43306 13.0669C5.31585 12.9497 5.25 12.7908 5.25 12.625V5.125C5.25 4.95924 5.18415 4.80027 5.06694 4.68306C4.94973 4.56585 4.79076 4.5 4.625 4.5C4.45924 4.5 4.30027 4.56585 4.18306 4.68306C4.06585 4.80027 4 4.95924 4 5.125V12.6336C4.00227 13.1294 4.20082 13.6041 4.5522 13.9539C4.90359 14.3036 5.3792 14.5 5.875 14.5H19.625C20.1223 14.5 20.5992 14.3025 20.9508 13.9508C21.3025 13.5992 21.5 13.1223 21.5 12.625V3.25C21.5 2.91848 21.3683 2.60054 21.1339 2.36612C20.8995 2.1317 20.5815 2 20.25 2ZM17.125 10.125H10.875C10.7092 10.125 10.5503 10.0592 10.4331 9.94194C10.3158 9.82473 10.25 9.66576 10.25 9.5C10.25 9.33424 10.3158 9.17527 10.4331 9.05806C10.5503 8.94085 10.7092 8.875 10.875 8.875H17.125C17.2908 8.875 17.4497 8.94085 17.5669 9.05806C17.6842 9.17527 17.75 9.33424 17.75 9.5C17.75 9.66576 17.6842 9.82473 17.5669 9.94194C17.4497 10.0592 17.2908 10.125 17.125 10.125ZM17.125 7.625H10.875C10.7092 7.625 10.5503 7.55915 10.4331 7.44194C10.3158 7.32473 10.25 7.16576 10.25 7C10.25 6.83424 10.3158 6.67527 10.4331 6.55806C10.5503 6.44085 10.7092 6.375 10.875 6.375H17.125C17.2908 6.375 17.4497 6.44085 17.5669 6.55806C17.6842 6.67527 17.75 6.83424 17.75 7C17.75 7.16576 17.6842 7.32473 17.5669 7.44194C17.4497 7.55915 17.2908 7.625 17.125 7.625Z" fill="#007C85"/>
</g>
<defs>
<filter id="filter0_d_473_510" x="0" y="0" width="25.5" height="20.5" filterUnits="userSpaceOnUse" color-interpolation-filters="sRGB">
<feFlood flood-opacity="0" result="BackgroundImageFix"/>
<feColorMatrix in="SourceAlpha" type="matrix" values="0 0 0 0 0 0 0 0 0 0 0 0 0 0 0 0 0 0 127 0" result="hardAlpha"/>
<feOffset dy="2"/>
<feGaussianBlur stdDeviation="2"/>
<feComposite in2="hardAlpha" operator="out"/>
<feColorMatrix type="matrix" values="0 0 0 0 0 0 0 0 0 0 0 0 0 0 0 0 0 0 0.25 0"/>
<feBlend mode="normal" in2="BackgroundImageFix" result="effect1_dropShadow_473_510"/>
<feBlend mode="normal" in="SourceGraphic" in2="effect1_dropShadow_473_510" result="shape"/>
</filter>
</defs>
</svg>
