<svg width="30" height="37" viewBox="0 0 30 37" fill="none" xmlns="http://www.w3.org/2000/svg">
<path d="M16.5 12.8333H26.5833L16.5 2.75V12.8333ZM3.66667 0H18.3333L29.3333 11V33C29.3333 33.9725 28.947 34.9051 28.2594 35.5927C27.5718 36.2804 26.6391 36.6667 25.6667 36.6667H3.66667C2.69421 36.6667 1.76157 36.2804 1.07394 35.5927C0.386308 34.9051 0 33.9725 0 33V3.66667C0 2.69421 0.386308 1.76157 1.07394 1.07394C1.76157 0.386308 2.69421 0 3.66667 0ZM12.705 19.14C13.4567 20.79 14.41 22.1467 15.51 23.0817L16.2617 23.6683C14.6667 23.9617 12.4667 24.475 10.1383 25.3733L9.93667 25.4467L10.8533 23.54C11.6783 21.945 12.2833 20.4967 12.705 19.14ZM24.585 26.125C24.915 25.795 25.08 25.3733 25.0983 24.915C25.1533 24.5483 25.0617 24.2 24.8783 23.9067C24.3467 23.045 22.9717 22.6417 20.6983 22.6417L18.3333 22.77L16.7383 21.7067C15.5833 20.7533 14.5383 19.085 13.805 17.0133L13.8783 16.7567C14.4833 14.3183 15.0517 11.3667 13.8417 10.1567C13.6937 10.013 13.5186 9.90005 13.3266 9.82452C13.1346 9.74899 12.9296 9.71233 12.7233 9.71667H12.2833C11.605 9.71667 11 10.4317 10.835 11.1283C10.1567 13.5667 10.56 14.905 11.2383 17.1233V17.1417C10.78 18.755 10.1933 20.625 9.25833 22.5133L7.49833 25.8133L5.86667 26.7117C3.66667 28.0867 2.62167 29.6267 2.42 30.5983C2.34667 30.9467 2.38333 31.2583 2.51167 31.5883L2.56667 31.68L3.44667 32.2483L4.25333 32.45C5.73833 32.45 7.425 30.7083 9.69833 26.8217L10.0283 26.6933C11.9167 26.0883 14.2633 25.6667 17.4167 25.3183C19.305 26.2533 21.5233 26.675 22.9167 26.675C23.7233 26.675 24.2733 26.4733 24.585 26.125ZM23.8333 24.8233L23.9983 25.025C23.98 25.2083 23.925 25.2267 23.8333 25.2633H23.76L23.4117 25.3C22.5683 25.3 21.2667 24.9517 19.9283 24.365C20.0933 24.1817 20.1667 24.1817 20.35 24.1817C22.9167 24.1817 23.65 24.64 23.8333 24.8233ZM7.02167 27.5C5.83 29.6817 4.74833 30.8917 3.92333 31.1667C4.015 30.47 4.84 29.26 6.14167 28.0683L7.02167 27.5ZM12.5583 14.8317C12.1367 13.1817 12.1183 11.8433 12.43 11.0733L12.5583 10.8533L12.8333 10.945C13.145 11.385 13.1817 11.9717 12.9983 12.9617L12.9433 13.255L12.65 14.7583L12.5583 14.8317Z" fill="#EF5350"/>
</svg>
