<svg width="22" height="25" viewBox="0 0 22 25" fill="none" xmlns="http://www.w3.org/2000/svg">
<g filter="url(#filter0_d_473_826)">
<path d="M10.6667 2C11.7717 2 12.8315 2.43899 13.6129 3.22039C14.3943 4.00179 14.8333 5.0616 14.8333 6.16667V8.66667C15.4964 8.66667 16.1323 8.93006 16.6011 9.3989C17.0699 9.86774 17.3333 10.5036 17.3333 11.1667V16.1667C17.3333 16.8297 17.0699 17.4656 16.6011 17.9344C16.1323 18.4033 15.4964 18.6667 14.8333 18.6667H6.5C5.83696 18.6667 5.20107 18.4033 4.73223 17.9344C4.26339 17.4656 4 16.8297 4 16.1667V11.1667C4 10.5036 4.26339 9.86774 4.73223 9.3989C5.20107 8.93006 5.83696 8.66667 6.5 8.66667V6.16667C6.5 5.0616 6.93899 4.00179 7.72039 3.22039C8.50179 2.43899 9.5616 2 10.6667 2ZM10.6667 12C10.2462 11.9999 9.84119 12.1587 9.53288 12.4446C9.22456 12.7305 9.0357 13.1224 9.00417 13.5417L9 13.6667C9 13.9963 9.09775 14.3185 9.28088 14.5926C9.46402 14.8667 9.72432 15.0803 10.0289 15.2065C10.3334 15.3326 10.6685 15.3656 10.9918 15.3013C11.3151 15.237 11.6121 15.0783 11.8452 14.8452C12.0783 14.6121 12.237 14.3151 12.3013 13.9918C12.3656 13.6685 12.3326 13.3334 12.2065 13.0289C12.0803 12.7243 11.8667 12.464 11.5926 12.2809C11.3185 12.0977 10.9963 12 10.6667 12ZM10.6667 3.66667C10.0036 3.66667 9.36774 3.93006 8.8989 4.3989C8.43006 4.86774 8.16667 5.50363 8.16667 6.16667V8.66667H13.1667V6.16667C13.1667 5.50363 12.9033 4.86774 12.4344 4.3989C11.9656 3.93006 11.3297 3.66667 10.6667 3.66667Z" fill="#E19A3A"/>
</g>
<defs>
<filter id="filter0_d_473_826" x="0" y="0" width="21.3334" height="24.6667" filterUnits="userSpaceOnUse" color-interpolation-filters="sRGB">
<feFlood flood-opacity="0" result="BackgroundImageFix"/>
<feColorMatrix in="SourceAlpha" type="matrix" values="0 0 0 0 0 0 0 0 0 0 0 0 0 0 0 0 0 0 127 0" result="hardAlpha"/>
<feOffset dy="2"/>
<feGaussianBlur stdDeviation="2"/>
<feComposite in2="hardAlpha" operator="out"/>
<feColorMatrix type="matrix" values="0 0 0 0 0 0 0 0 0 0 0 0 0 0 0 0 0 0 0.25 0"/>
<feBlend mode="normal" in2="BackgroundImageFix" result="effect1_dropShadow_473_826"/>
<feBlend mode="normal" in="SourceGraphic" in2="effect1_dropShadow_473_826" result="shape"/>
</filter>
</defs>
</svg>
