<svg width="19" height="25" viewBox="0 0 19 25" fill="none" xmlns="http://www.w3.org/2000/svg">
<g filter="url(#filter0_d_473_1152)">
<path d="M11.1831 16.348C11.1831 16.8785 10.9724 17.3872 10.5973 17.7622C10.2222 18.1373 9.71354 18.348 9.18311 18.348C8.65267 18.348 8.14396 18.1373 7.76889 17.7622C7.39382 17.3872 7.18311 16.8785 7.18311 16.348C7.18311 15.8176 7.39382 15.3089 7.76889 14.9338C8.14396 14.5587 8.65267 14.348 9.18311 14.348C9.71354 14.348 10.2222 14.5587 10.5973 14.9338C10.9724 15.3089 11.1831 15.8176 11.1831 16.348Z" fill="#90908F"/>
<path fill-rule="evenodd" clip-rule="evenodd" d="M9.1541 4.9C8.4841 4.9 7.9091 5.1 7.5041 5.386C7.1141 5.662 6.9211 5.983 6.8651 6.26C6.78235 6.63026 6.55778 6.95335 6.23956 7.15994C5.92135 7.36653 5.53483 7.44017 5.16294 7.36506C4.79106 7.28995 4.46342 7.07207 4.25033 6.75817C4.03723 6.44427 3.95566 6.05935 4.0231 5.686C4.2501 4.56 4.9481 3.641 5.8321 3.016C6.7521 2.366 7.9181 2 9.1541 2C11.7111 2 14.3621 3.71 14.3621 6.456C14.3621 8.046 13.4171 9.332 12.1931 10.082C11.865 10.2828 11.4706 10.345 11.0967 10.255C10.7227 10.165 10.3999 9.93007 10.1991 9.602C9.99833 9.27393 9.93611 8.87954 10.0261 8.50559C10.1161 8.13164 10.351 7.80877 10.6791 7.608C11.2491 7.259 11.4621 6.814 11.4621 6.456C11.4621 5.882 10.7471 4.9 9.1541 4.9Z" fill="#90908F"/>
<path fill-rule="evenodd" clip-rule="evenodd" d="M9.1541 8.76501C9.9541 8.76501 10.6041 9.41301 10.6041 10.215V11.717C10.6041 12.1016 10.4513 12.4704 10.1794 12.7423C9.90748 13.0142 9.53867 13.167 9.1541 13.167C8.76954 13.167 8.40072 13.0142 8.1288 12.7423C7.85687 12.4704 7.7041 12.1016 7.7041 11.717V10.215C7.7041 9.41501 8.3531 8.76501 9.1541 8.76501Z" fill="#90908F"/>
<path fill-rule="evenodd" clip-rule="evenodd" d="M12.6831 8.10101C12.7811 8.26447 12.8458 8.44564 12.8737 8.63415C12.9016 8.82267 12.8921 9.01483 12.8456 9.19965C12.7992 9.38447 12.7168 9.55832 12.6031 9.71127C12.4894 9.86421 12.3467 9.99325 12.1831 10.091L9.89913 11.458C9.5692 11.6556 9.17429 11.714 8.80128 11.6204C8.42827 11.5269 8.10771 11.2889 7.91013 10.959C7.71254 10.6291 7.65411 10.2342 7.74769 9.86116C7.84127 9.48815 8.0792 9.16759 8.40913 8.97001L10.6941 7.60201C10.8576 7.50421 11.0386 7.43957 11.227 7.41177C11.4155 7.38397 11.6075 7.39356 11.7922 7.43999C11.9769 7.48642 12.1506 7.56879 12.3035 7.68238C12.4564 7.79596 12.5854 7.93756 12.6831 8.10101Z" fill="#90908F"/>
</g>
<defs>
<filter id="filter0_d_473_1152" x="0" y="0" width="18.3621" height="24.348" filterUnits="userSpaceOnUse" color-interpolation-filters="sRGB">
<feFlood flood-opacity="0" result="BackgroundImageFix"/>
<feColorMatrix in="SourceAlpha" type="matrix" values="0 0 0 0 0 0 0 0 0 0 0 0 0 0 0 0 0 0 127 0" result="hardAlpha"/>
<feOffset dy="2"/>
<feGaussianBlur stdDeviation="2"/>
<feComposite in2="hardAlpha" operator="out"/>
<feColorMatrix type="matrix" values="0 0 0 0 0 0 0 0 0 0 0 0 0 0 0 0 0 0 0.25 0"/>
<feBlend mode="normal" in2="BackgroundImageFix" result="effect1_dropShadow_473_1152"/>
<feBlend mode="normal" in="SourceGraphic" in2="effect1_dropShadow_473_1152" result="shape"/>
</filter>
</defs>
</svg>
