<svg width="25" height="25" viewBox="0 0 25 25" fill="none" xmlns="http://www.w3.org/2000/svg">
<g filter="url(#filter0_d_473_1150)">
<path d="M12.3333 14.5C12.5694 14.5 12.7675 14.42 12.9275 14.26C13.0875 14.1 13.1672 13.9022 13.1667 13.6667V10.3333C13.1667 10.0972 13.0867 9.89944 12.9267 9.74C12.7667 9.58056 12.5689 9.50056 12.3333 9.5C12.0978 9.49944 11.9 9.57944 11.74 9.74C11.58 9.90056 11.5 10.0983 11.5 10.3333V13.6667C11.5 13.9028 11.58 14.1008 11.74 14.2608C11.9 14.4208 12.0978 14.5006 12.3333 14.5ZM12.3333 7.83333C12.5694 7.83333 12.7675 7.75333 12.9275 7.59333C13.0875 7.43333 13.1672 7.23556 13.1667 7C13.1661 6.76444 13.0861 6.56667 12.9267 6.40667C12.7672 6.24667 12.5694 6.16667 12.3333 6.16667C12.0972 6.16667 11.8994 6.24667 11.74 6.40667C11.5806 6.56667 11.5006 6.76444 11.5 7C11.4994 7.23556 11.5794 7.43361 11.74 7.59417C11.9006 7.75472 12.0983 7.83444 12.3333 7.83333ZM12.3333 18.6667C11.1806 18.6667 10.0972 18.4478 9.08333 18.01C8.06945 17.5722 7.1875 16.9786 6.4375 16.2292C5.6875 15.4797 5.09389 14.5978 4.65667 13.5833C4.21945 12.5689 4.00056 11.4856 4 10.3333C3.99945 9.18111 4.21833 8.09778 4.65667 7.08333C5.095 6.06889 5.68861 5.18694 6.4375 4.4375C7.18639 3.68806 8.06833 3.09444 9.08333 2.65667C10.0983 2.21889 11.1817 2 12.3333 2C13.485 2 14.5683 2.21889 15.5833 2.65667C16.5983 3.09444 17.4803 3.68806 18.2292 4.4375C18.9781 5.18694 19.5719 6.06889 20.0108 7.08333C20.4497 8.09778 20.6683 9.18111 20.6667 10.3333C20.665 11.4856 20.4461 12.5689 20.01 13.5833C19.5739 14.5978 18.9803 15.4797 18.2292 16.2292C17.4781 16.9786 16.5961 17.5725 15.5833 18.0108C14.5706 18.4492 13.4872 18.6678 12.3333 18.6667Z" fill="#1ABCCB"/>
</g>
<defs>
<filter id="filter0_d_473_1150" x="0" y="0" width="24.6666" height="24.6667" filterUnits="userSpaceOnUse" color-interpolation-filters="sRGB">
<feFlood flood-opacity="0" result="BackgroundImageFix"/>
<feColorMatrix in="SourceAlpha" type="matrix" values="0 0 0 0 0 0 0 0 0 0 0 0 0 0 0 0 0 0 127 0" result="hardAlpha"/>
<feOffset dy="2"/>
<feGaussianBlur stdDeviation="2"/>
<feComposite in2="hardAlpha" operator="out"/>
<feColorMatrix type="matrix" values="0 0 0 0 0 0 0 0 0 0 0 0 0 0 0 0 0 0 0.25 0"/>
<feBlend mode="normal" in2="BackgroundImageFix" result="effect1_dropShadow_473_1150"/>
<feBlend mode="normal" in="SourceGraphic" in2="effect1_dropShadow_473_1150" result="shape"/>
</filter>
</defs>
</svg>
